<svg width="24" height="30" viewBox="0 0 24 30" fill="none" xmlns="http://www.w3.org/2000/svg">
<path d="M21.769 7.772C23.005 7.743 24 6.765 24 5.556C24 4.329 22.977 3.334 21.714 3.334C21.599 3.334 21.489 3.351 21.379 3.367C21.587 3.032 21.714 2.643 21.714 2.223C21.714 0.995 20.691 0 19.429 0C18.272 0 17.326 0.839 17.174 1.923C16.04 0.762 14.147 0 12 0C9.853 0 7.96 0.762 6.826 1.923C6.675 0.839 5.728 0 4.571 0C3.309 0 2.285 0.995 2.285 2.222C2.285 2.642 2.412 3.031 2.62 3.366C2.51 3.35 2.399 3.333 2.285 3.333C1.023 3.333 0 4.328 0 5.556C0 6.765 0.995 7.744 2.231 7.773C0.896 9.131 0 11.606 0 14.444C0 17.282 0.896 19.758 2.231 21.116C0.995 21.146 0 22.124 0 23.333C0 24.56 1.023 25.555 2.286 25.555C2.401 25.555 2.511 25.538 2.621 25.522C2.413 25.857 2.286 26.246 2.286 26.666C2.286 27.893 3.309 28.888 4.572 28.888C5.422 28.888 6.156 28.431 6.549 27.761C7.633 29.098 9.666 30 12 30C14.334 30 16.367 29.098 17.451 27.762C17.845 28.432 18.578 28.889 19.428 28.889C20.69 28.889 21.714 27.894 21.714 26.667C21.714 26.247 21.587 25.858 21.379 25.523C21.489 25.539 21.6 25.556 21.714 25.556C22.976 25.556 24 24.561 24 23.334C24 22.125 23.005 21.146 21.769 21.117C23.104 19.758 24 17.282 24 14.444C24 11.606 23.104 9.131 21.769 7.772ZM20 25H4V4H20V25Z" fill="#FFB300"/>
<path d="M12 15C13.1046 15 14 14.1046 14 13C14 11.8954 13.1046 11 12 11C10.8954 11 10 11.8954 10 13C10 14.1046 10.8954 15 12 15Z" fill="#FFB300"/>
<path d="M12 14C12.5523 14 13 13.5523 13 13C13 12.4477 12.5523 12 12 12C11.4477 12 11 12.4477 11 13C11 13.5523 11.4477 14 12 14Z" fill="#0097A7"/>
</svg>
